<svg width="211" height="65" viewBox="0 0 211 65" fill="none" xmlns="http://www.w3.org/2000/svg">
<path d="M71.2482 30.8005C72.8358 30.8005 74.2097 31.0561 75.3705 31.5671C76.548 32.0782 77.4521 32.8036 78.0837 33.7433C78.7152 34.683 79.0313 35.7958 79.0313 37.0817C79.0313 38.3511 78.7152 39.4639 78.0837 40.4202C77.4521 41.3599 76.548 42.0853 75.3705 42.5965C74.2097 43.0908 72.8358 43.3382 71.2482 43.3382H67.6388V48.111H63.4918V30.8005H71.2482ZM71.0182 40.0739C72.2635 40.0739 73.2111 39.8184 73.8595 39.3073C74.5084 38.7797 74.8323 38.0379 74.8323 37.0817C74.8323 36.109 74.5084 35.3671 73.8595 34.8561C73.2111 34.3285 72.2635 34.0648 71.0182 34.0648H67.6388V40.0739H71.0182Z" fill="#81818B"/>
<path d="M84.2451 36.5622C84.7223 35.9193 85.3628 35.4329 86.1645 35.1032C86.984 34.7734 87.9222 34.6086 88.9806 34.6086V38.1696C88.5369 38.1366 88.2382 38.1202 88.0844 38.1202C86.9409 38.1202 86.0453 38.4334 85.3969 39.0599C84.748 39.6698 84.4236 40.5931 84.4236 41.8294V48.1109H80.4304V34.8065H84.2451V36.5622Z" fill="#81818B"/>
<path d="M96.5038 48.3084C95.0533 48.3084 93.7476 48.0202 92.5873 47.443C91.4439 46.8496 90.5477 46.0333 89.8993 44.9947C89.251 43.9561 88.9265 42.7773 88.9265 41.4586C88.9265 40.1397 89.251 38.9609 89.8993 37.9223C90.5477 36.8837 91.4439 36.0759 92.5873 35.4989C93.7476 34.9054 95.0533 34.6086 96.5038 34.6086C97.9544 34.6086 99.2517 34.9054 100.395 35.4989C101.539 36.0759 102.435 36.8837 103.084 37.9223C103.732 38.9609 104.056 40.1397 104.056 41.4586C104.056 42.7773 103.732 43.9561 103.084 44.9947C102.435 46.0333 101.539 46.8496 100.395 47.443C99.2517 48.0202 97.9544 48.3084 96.5038 48.3084ZM96.5038 45.1431C97.5281 45.1431 98.3644 44.8137 99.0128 44.154C99.6785 43.4782 100.011 42.5798 100.011 41.4586C100.011 40.3375 99.6785 39.4473 99.0128 38.7878C98.3644 38.1119 97.5281 37.7739 96.5038 37.7739C95.4801 37.7739 94.6354 38.1119 93.9697 38.7878C93.304 39.4473 92.9711 40.3375 92.9711 41.4586C92.9711 42.5798 93.304 43.4782 93.9697 44.154C94.6354 44.8137 95.4801 45.1431 96.5038 45.1431Z" fill="#81818B"/>
<path d="M122.163 30.8005V48.111H118.758L109.823 37.601V48.111H105.727V30.8005H109.157L118.067 41.3104V30.8005H122.163Z" fill="#81818B"/>
<path d="M130.396 34.6086C132.529 34.6086 134.168 35.1032 135.311 36.0924C136.455 37.0651 137.026 38.5406 137.026 40.5189V48.1109H133.289V46.4538C132.538 47.6903 131.139 48.3084 129.091 48.3084C128.032 48.3084 127.11 48.1356 126.325 47.7893C125.558 47.443 124.969 46.9651 124.559 46.3549C124.15 45.745 123.944 45.0524 123.944 44.2777C123.944 43.0412 124.423 42.0686 125.378 41.3597C126.351 40.6508 127.845 40.2963 129.859 40.2963H133.033C133.033 39.4555 132.769 38.8126 132.239 38.3674C131.71 37.9058 130.916 37.675 129.859 37.675C129.125 37.675 128.399 37.7904 127.682 38.0213C126.983 38.2356 126.385 38.5323 125.89 38.9115L124.457 36.216C125.208 35.7049 126.103 35.3093 127.144 35.029C128.203 34.7488 129.287 34.6086 130.396 34.6086ZM130.089 45.7121C130.772 45.7121 131.377 45.5637 131.906 45.2668C132.435 44.9535 132.811 44.5003 133.033 43.9066V42.5469H130.294C128.655 42.5469 127.836 43.0659 127.836 44.1045C127.836 44.5993 128.032 44.9947 128.425 45.2916C128.834 45.5719 129.389 45.7121 130.089 45.7121Z" fill="#81818B"/>
<path d="M148.244 47.4678C147.852 47.7481 147.365 47.9625 146.785 48.1109C146.222 48.2425 145.624 48.3084 144.993 48.3084C143.355 48.3084 142.083 47.9048 141.179 47.0971C140.291 46.289 139.847 45.102 139.847 43.536V38.0708H137.723V35.1033H139.847V31.8638H143.841V35.1033H147.271V38.0708H143.841V43.4865C143.841 44.0469 143.986 44.4839 144.276 44.7972C144.583 45.0937 145.01 45.2421 145.556 45.2421C146.188 45.2421 146.725 45.0772 147.169 44.7478L148.244 47.4678Z" fill="#81818B"/>
<path d="M163.082 34.8066V48.111H159.293V46.5282C158.764 47.105 158.132 47.5503 157.398 47.8637C156.664 48.1605 155.871 48.3085 155.017 48.3085C153.208 48.3085 151.775 47.806 150.716 46.8003C149.658 45.7947 149.129 44.3026 149.129 42.3244V34.8066H153.123V41.7554C153.123 43.8985 154.053 44.9701 155.913 44.9701C156.869 44.9701 157.637 44.6737 158.218 44.0799C158.797 43.4701 159.087 42.5718 159.087 41.3846V34.8066H163.082Z" fill="#81818B"/>
<path d="M169.315 36.5622C169.793 35.9193 170.434 35.4329 171.235 35.1032C172.054 34.7734 172.994 34.6086 174.052 34.6086V38.1696C173.608 38.1366 173.309 38.1202 173.156 38.1202C172.012 38.1202 171.116 38.4334 170.468 39.0599C169.819 39.6698 169.495 40.5931 169.495 41.8294V48.1109H165.501V34.8065H169.315V36.5622Z" fill="#81818B"/>
<path d="M188.513 41.5082C188.513 41.5573 188.487 41.9036 188.436 42.5469H178.017C178.204 43.371 178.648 44.022 179.348 44.5003C180.048 44.9782 180.918 45.2173 181.959 45.2173C182.676 45.2173 183.307 45.1184 183.853 44.9205C184.417 44.7065 184.937 44.3766 185.415 43.9313L187.54 46.157C186.243 47.5914 184.348 48.3084 181.856 48.3084C180.304 48.3084 178.93 48.0202 177.735 47.443C176.54 46.8496 175.619 46.0333 174.97 44.9947C174.321 43.9561 173.997 42.7773 173.997 41.4586C173.997 40.1562 174.313 38.9857 174.945 37.9471C175.593 36.8919 176.472 36.0759 177.581 35.4989C178.708 34.9054 179.962 34.6086 181.345 34.6086C182.693 34.6086 183.913 34.8889 185.006 35.4494C186.098 36.0099 186.951 36.8177 187.566 37.8729C188.197 38.9115 188.513 40.1232 188.513 41.5082ZM181.37 37.5266C180.466 37.5266 179.706 37.7739 179.092 38.2685C178.477 38.7631 178.102 39.4391 177.965 40.2963H184.749C184.613 39.4555 184.237 38.7878 183.623 38.2933C183.009 37.7822 182.258 37.5266 181.37 37.5266Z" fill="#81818B"/>
<path fill-rule="evenodd" clip-rule="evenodd" d="M40.7479 21.1603C40.1394 20.8203 39.3891 20.8203 38.7807 21.1603C34.4587 23.5754 31.5436 28.094 31.5436 33.2726C31.5436 34.0106 31.6029 34.7353 31.7169 35.4424C28.7417 34.4664 25.5202 34.8215 22.8889 36.2861C22.2798 36.6252 21.9046 37.2528 21.9053 37.9318C21.9084 41.5142 23.8349 45.0057 27.2852 46.9298C28.9779 47.874 30.8254 48.3226 32.6478 48.3234C32.3706 49.0825 32.2197 49.8989 32.2197 50.7494C32.2197 54.7744 35.5974 58.0367 39.764 58.0367C43.9308 58.0367 47.3082 54.7744 47.3082 50.7494C47.3082 49.8968 47.1567 49.0788 46.8784 48.3185C48.5922 48.2661 50.3183 47.8167 51.9078 46.9298C55.3584 45.0057 57.2847 41.5142 57.2873 37.932C57.2883 37.2529 56.913 36.6253 56.304 36.2863C53.7766 34.8793 50.7041 34.4962 47.829 35.3334C47.9318 34.6609 47.9848 33.9728 47.9848 33.2726C47.9848 28.094 45.07 23.5754 40.7479 21.1603ZM35.4723 33.2726C35.4723 29.9097 37.1579 26.9254 39.7643 25.0678C42.3706 26.9254 44.0562 29.9097 44.0562 33.2726C44.0562 36.6354 42.3706 39.6197 39.7643 41.4772C37.1579 39.6197 35.4723 36.6354 35.4723 33.2726ZM47.5114 39.5745C49.3254 38.5627 51.4216 38.4451 53.2527 39.0852C52.9114 40.9371 51.7575 42.6316 49.9435 43.6434C48.1294 44.6552 46.0333 44.7727 44.2022 44.1328C44.5437 42.2807 45.6974 40.5862 47.5114 39.5745ZM25.9404 39.0851C27.7714 38.4449 29.8675 38.5626 31.6815 39.5744C33.4956 40.586 34.6492 42.2807 34.9908 44.1324C33.1597 44.7727 31.0636 44.6552 29.2496 43.6434C27.4355 42.6316 26.2819 40.937 25.9404 39.0851ZM36.1484 50.7494C36.1484 48.8207 37.7672 47.2568 39.764 47.2568C41.7608 47.2568 43.3797 48.8207 43.3797 50.7494C43.3797 52.6782 41.7608 54.242 39.764 54.242C37.7672 54.242 36.1484 52.6782 36.1484 50.7494Z" fill="#81818B"/>
</svg>
