<svg width="183" height="65" viewBox="0 0 183 65" fill="none" xmlns="http://www.w3.org/2000/svg">
<path fill-rule="evenodd" clip-rule="evenodd" d="M29.5954 31.2361C32.3358 27.7339 36.724 25.4649 41.6699 25.4649C46.6449 25.4649 51.0554 27.7606 53.7925 31.298C53.676 31.4118 53.5699 31.5298 53.4739 31.6476C52.9725 32.2645 52.5953 33.059 52.2931 33.8659C51.6845 35.4887 51.2203 37.6085 50.7905 39.5935L50.7523 39.7719C50.3235 41.7533 49.9249 43.5959 49.443 44.9638C49.2264 45.5783 49.0211 46.0128 48.839 46.291C48.649 46.0105 48.4335 45.5708 48.2053 44.9475C47.6899 43.5403 47.2563 41.6263 46.7968 39.5827L46.7819 39.5157V39.5157C46.3403 37.5527 45.8718 35.4699 45.2877 33.8756C44.9943 33.0747 44.6342 32.2881 44.1633 31.6769C43.7011 31.0772 42.9318 30.4003 41.8066 30.4003C40.6885 30.4003 39.9157 31.0698 39.4468 31.6629C38.9668 32.2701 38.5926 33.0534 38.2843 33.8547C37.6634 35.4682 37.1559 37.5789 36.6835 39.5666L36.6347 39.7719C36.1669 41.7409 35.7296 43.5818 35.2332 44.9523C35.0438 45.4757 34.865 45.8739 34.7031 46.1583C34.5449 45.8752 34.3706 45.4797 34.1862 44.9607C33.7101 43.6194 33.2929 41.8301 32.8449 39.9083L32.7664 39.5719C32.3022 37.583 31.7986 35.4685 31.1689 33.85C30.8561 33.0457 30.4734 32.2584 29.9782 31.6484C29.8661 31.5103 29.7387 31.3701 29.5954 31.2361ZM27.9369 33.9253C28.0674 34.1701 28.2055 34.4736 28.3482 34.8406C28.8933 36.2416 29.355 38.1533 29.8305 40.1905L29.9231 40.5875C30.356 42.4464 30.8063 44.38 31.3368 45.8739C31.6189 46.6684 31.9597 47.4466 32.3978 48.0514C32.8122 48.6235 33.5556 49.3623 34.6987 49.3623C35.8385 49.3623 36.5836 48.627 37.0008 48.0576C37.4428 47.4542 37.7891 46.6769 38.0769 45.8818C38.6286 44.3584 39.0985 42.3794 39.5481 40.4855V40.4854L39.6168 40.1959C40.1013 38.1574 40.5676 36.2419 41.1087 34.8358C41.3593 34.1843 41.594 33.7305 41.7983 33.449C41.9919 33.7281 42.2131 34.1747 42.4477 34.815C42.9632 36.2222 43.3964 38.1361 43.856 40.1798L43.8711 40.2467C44.3126 42.2098 44.7811 44.2926 45.3651 45.8867C45.6586 46.6879 46.0186 47.4745 46.4896 48.0855C46.9518 48.6854 47.7211 49.3623 48.846 49.3623C49.977 49.3623 50.7435 48.6792 51.2002 48.074C51.664 47.4599 52.0128 46.6707 52.2945 45.8708C52.836 44.3344 53.2665 42.3408 53.677 40.4444V40.4443L53.7358 40.169C54.1779 38.1278 54.6021 36.2214 55.126 34.8246C55.2394 34.5208 55.3512 34.2617 55.4578 34.0441C56.2606 35.7921 56.7057 37.7223 56.7057 39.7513C56.7057 47.6413 49.9743 54.0377 41.6699 54.0377C33.3658 54.0377 26.6339 47.6413 26.6339 39.7513C26.6339 37.6762 27.0995 35.7044 27.9369 33.9253ZM41.6699 22.6077C31.7049 22.6077 23.6267 30.2831 23.6267 39.7513C23.6267 49.2194 31.7049 56.8948 41.6699 56.8948C51.6351 56.8948 59.713 49.2194 59.713 39.7513C59.713 30.2831 51.6351 22.6077 41.6699 22.6077ZM42.0137 33.2098C42.0137 33.2101 42.0102 33.2128 42.0031 33.2167C42.0101 33.2114 42.0137 33.2095 42.0137 33.2098ZM41.598 33.2117C41.5911 33.2077 41.5876 33.2049 41.5876 33.2045C41.5876 33.2042 41.5911 33.2062 41.598 33.2117ZM48.6174 46.5623C48.6174 46.5623 48.6206 46.5592 48.6272 46.5552C48.6206 46.5605 48.6174 46.5627 48.6174 46.5623ZM49.0546 46.5508C49.0616 46.5548 49.0653 46.5574 49.0653 46.5579C49.0653 46.5583 49.0616 46.5561 49.0546 46.5508ZM34.3905 46.5879C34.3905 46.5875 34.3948 46.5835 34.4035 46.5778C34.3949 46.5853 34.3905 46.5884 34.3905 46.5879ZM34.9995 46.5804C35.0081 46.5862 35.0124 46.5901 35.0124 46.5906C35.0124 46.591 35.008 46.5884 34.9995 46.5804Z" fill="#81818B"/>
<path d="M69.6756 49.9008L65.3003 35.6802H69.1328L71.7279 45.9155L74.745 35.6802H79.0301L82.0478 45.9155L84.6728 35.6802H88.5053L84.0995 49.9008H80.0864L76.8876 39.264L73.6893 49.9008H69.6756Z" fill="#81818B"/>
<path d="M94.1286 50.2448C92.8413 50.2448 91.785 50.0532 90.9602 49.671C90.136 49.2697 89.5223 48.7441 89.1196 48.0942C88.7174 47.4443 88.5164 46.7276 88.5164 45.944C88.5164 44.6252 89.0592 43.5548 90.1454 42.7329C91.2317 41.911 92.8618 41.5001 95.0342 41.5001H98.8363V41.156C98.8363 40.1812 98.5444 39.4645 97.9611 39.0057C97.3778 38.547 96.6533 38.3177 95.7887 38.3177C95.0038 38.3177 94.3197 38.4992 93.7364 38.8624C93.1532 39.2064 92.7909 39.7225 92.6502 40.4106H88.8781C88.9789 39.3785 89.3411 38.4801 89.9643 37.7156C90.6085 36.951 91.4333 36.368 92.4386 35.9667C93.4451 35.5462 94.5712 35.3359 95.8186 35.3359C97.9511 35.3359 99.6306 35.8424 100.858 36.8554C102.085 37.8685 102.699 39.3021 102.699 41.156V49.9006H99.4091L99.0473 47.6071C98.6048 48.3716 97.9811 49.0021 97.1768 49.4993C96.3919 49.9961 95.376 50.2448 94.1286 50.2448ZM95.0038 47.3775C96.1105 47.3775 96.9652 47.0333 97.5684 46.3453C98.1921 45.6574 98.5848 44.8066 98.746 43.7937H95.4563C94.4305 43.7937 93.6965 43.9753 93.2534 44.3384C92.8114 44.6823 92.5898 45.1128 92.5898 45.6286C92.5898 46.183 92.8114 46.613 93.2534 46.9187C93.6965 47.2244 94.2793 47.3775 95.0038 47.3775Z" fill="#81818B"/>
<path d="M108.779 49.9008L103.287 35.6802H107.33L111.132 46.4318L114.934 35.6802H118.978L113.456 49.9008H108.779Z" fill="#81818B"/>
<path d="M126.742 50.2448C125.234 50.2448 123.896 49.9387 122.729 49.3272C121.563 48.7154 120.648 47.8553 119.983 46.7466C119.319 45.6383 118.988 44.3575 118.988 42.9049C118.988 41.4332 119.31 40.1239 119.953 38.9771C120.617 37.8303 121.522 36.9415 122.669 36.3107C123.835 35.6609 125.204 35.3359 126.773 35.3359C128.241 35.3359 129.539 35.6418 130.666 36.2534C131.792 36.865 132.667 37.706 133.291 38.7764C133.934 39.8276 134.257 41.0031 134.257 42.3028C134.257 42.5131 134.246 42.7329 134.226 42.9622C134.226 43.1917 134.216 43.4305 134.196 43.679H122.82C122.9 44.7876 123.303 45.6574 124.027 46.2883C124.771 46.9187 125.667 47.2342 126.713 47.2342C127.497 47.2342 128.151 47.0718 128.674 46.7466C129.217 46.4028 129.619 45.9631 129.881 45.4278H133.804C133.522 46.3263 133.049 47.1483 132.386 47.8938C131.741 48.6198 130.937 49.1932 129.971 49.6139C129.026 50.0342 127.949 50.2448 126.742 50.2448ZM126.773 38.3177C125.828 38.3177 124.992 38.5757 124.268 39.0917C123.544 39.5887 123.081 40.3533 122.88 41.3854H130.333C130.273 40.4488 129.911 39.7034 129.247 39.1491C128.583 38.5948 127.759 38.3177 126.773 38.3177Z" fill="#81818B"/>
<path d="M136.298 49.9007V29.2578H140.16V49.9007H136.298Z" fill="#81818B"/>
<path d="M150.171 50.2448C148.663 50.2448 147.325 49.9387 146.158 49.3272C144.992 48.7154 144.077 47.8553 143.413 46.7466C142.749 45.6383 142.417 44.3575 142.417 42.9049C142.417 41.4332 142.739 40.1239 143.382 38.9771C144.046 37.8303 144.951 36.9415 146.099 36.3107C147.265 35.6609 148.633 35.3359 150.202 35.3359C151.67 35.3359 152.968 35.6418 154.095 36.2534C155.221 36.865 156.097 37.706 156.72 38.7764C157.363 39.8276 157.686 41.0031 157.686 42.3028C157.686 42.5131 157.675 42.7329 157.655 42.9622C157.655 43.1917 157.645 43.4305 157.625 43.679H146.249C146.33 44.7876 146.732 45.6574 147.456 46.2883C148.2 46.9187 149.096 47.2342 150.142 47.2342C150.926 47.2342 151.58 47.0718 152.103 46.7466C152.646 46.4028 153.048 45.9631 153.31 45.4278H157.233C156.951 46.3263 156.478 47.1483 155.815 47.8938C155.171 48.6198 154.366 49.1932 153.4 49.6139C152.455 50.0342 151.379 50.2448 150.171 50.2448ZM150.202 38.3177C149.257 38.3177 148.422 38.5757 147.697 39.0917C146.973 39.5887 146.511 40.3533 146.309 41.3854H153.762C153.702 40.4488 153.34 39.7034 152.676 39.1491C152.012 38.5948 151.188 38.3177 150.202 38.3177Z" fill="#81818B"/>
<path d="M165.913 50.2448C164.585 50.2448 163.418 50.0439 162.413 49.6427C161.406 49.2219 160.602 48.6486 159.998 47.9221C159.395 47.1961 159.033 46.3551 158.912 45.3995H162.804C162.925 45.9533 163.248 46.4316 163.77 46.8329C164.313 47.2151 165.007 47.4063 165.852 47.4063C166.697 47.4063 167.311 47.2439 167.693 46.9187C168.095 46.594 168.296 46.221 168.296 45.8007C168.296 45.1889 168.015 44.7779 167.452 44.5677C166.888 44.3384 166.104 44.1187 165.098 43.9084C164.455 43.7746 163.801 43.6121 163.137 43.421C162.473 43.2299 161.859 42.9909 161.296 42.7043C160.753 42.3984 160.31 42.0161 159.968 41.5574C159.626 41.0795 159.455 40.4966 159.455 39.8085C159.455 38.547 159.978 37.4862 161.025 36.6261C162.09 35.766 163.579 35.3359 165.49 35.3359C167.261 35.3359 168.669 35.7277 169.715 36.5114C170.781 37.2951 171.414 38.375 171.616 39.7512H167.965C167.743 38.6999 166.908 38.1743 165.46 38.1743C164.736 38.1743 164.173 38.3081 163.77 38.5757C163.388 38.8433 163.197 39.1777 163.197 39.5791C163.197 39.9997 163.489 40.3342 164.072 40.5826C164.656 40.8311 165.43 41.0604 166.395 41.2708C167.441 41.5001 168.397 41.7581 169.262 42.0448C170.147 42.3124 170.851 42.7234 171.375 43.2777C171.897 43.8128 172.159 44.5868 172.159 45.5998C172.179 46.4794 171.937 47.2722 171.435 47.9796C170.932 48.6866 170.208 49.2409 169.262 49.6427C168.317 50.0439 167.2 50.2448 165.913 50.2448Z" fill="#81818B"/>
<path d="M180.559 50.2448C179.232 50.2448 178.065 50.0439 177.059 49.6427C176.053 49.2219 175.249 48.6486 174.645 47.9221C174.042 47.1961 173.679 46.3551 173.559 45.3995H177.451C177.572 45.9533 177.894 46.4316 178.417 46.8329C178.96 47.2151 179.654 47.4063 180.499 47.4063C181.344 47.4063 181.958 47.2439 182.34 46.9187C182.742 46.594 182.943 46.221 182.943 45.8007C182.943 45.1889 182.662 44.7779 182.098 44.5677C181.535 44.3384 180.751 44.1187 179.745 43.9084C179.101 43.7746 178.447 43.6121 177.783 43.421C177.12 43.2299 176.506 42.9909 175.943 42.7043C175.4 42.3984 174.957 42.0161 174.615 41.5574C174.273 41.0795 174.102 40.4966 174.102 39.8085C174.102 38.547 174.625 37.4862 175.671 36.6261C176.737 35.766 178.226 35.3359 180.137 35.3359C181.907 35.3359 183.315 35.7277 184.361 36.5114C185.427 37.2951 186.061 38.375 186.263 39.7512H182.611C182.39 38.6999 181.555 38.1743 180.107 38.1743C179.382 38.1743 178.819 38.3081 178.417 38.5757C178.035 38.8433 177.844 39.1777 177.844 39.5791C177.844 39.9997 178.135 40.3342 178.719 40.5826C179.302 40.8311 180.076 41.0604 181.042 41.2708C182.088 41.5001 183.044 41.7581 183.909 42.0448C184.794 42.3124 185.498 42.7234 186.021 43.2777C186.544 43.8128 186.806 44.5868 186.806 45.5998C186.826 46.4794 186.584 47.2722 186.081 47.9796C185.578 48.6866 184.854 49.2409 183.909 49.6427C182.963 50.0439 181.847 50.2448 180.559 50.2448Z" fill="#81818B"/>
</svg>
