<svg width="84" height="86" viewBox="0 0 84 86" fill="none" xmlns="http://www.w3.org/2000/svg">
<circle cx="41.6769" cy="41.6769" r="41.6769" fill="#0067BB"/>
<path d="M24.1739 58.6044C23.8486 58.6044 23.5843 58.5434 23.3809 58.4214C23.1776 58.34 23.0963 58.1367 23.1369 57.8114C23.1369 57.6894 23.1979 57.5064 23.3199 57.2624C23.4419 57.0184 23.5233 56.8354 23.5639 56.7134C23.7673 56.144 23.9503 55.5747 24.1129 55.0054C24.2756 54.3954 24.4383 53.826 24.6009 53.2974C25.1703 51.0607 25.6989 48.8444 26.1869 46.6484C26.6749 44.4117 27.0613 42.175 27.3459 39.9384C27.5086 38.637 27.7119 36.8884 27.9559 34.6924C28.1999 32.4557 28.3219 30.3004 28.3219 28.2264C28.3219 27.413 28.3016 26.6607 28.2609 25.9694C28.2203 25.2374 28.1186 24.5867 27.9559 24.0174C26.6139 24.0174 25.2719 24.0174 23.9299 24.0174C22.5879 23.9767 21.2663 23.9564 19.9649 23.9564C19.3549 23.9564 18.5009 23.997 17.4029 24.0784C16.3456 24.1597 15.2476 24.3427 14.1089 24.6274C13.0109 24.912 12.0959 25.3797 11.3639 26.0304C10.6319 26.681 10.3066 27.5554 10.3879 28.6534C10.4286 28.9787 10.5506 29.426 10.7539 29.9954C10.9573 30.524 11.0996 30.8494 11.1809 30.9714L10.5099 31.4594C10.2659 31.012 9.96092 30.5037 9.59492 29.9344C9.22892 29.3244 8.90358 28.7347 8.61892 28.1654C8.33425 27.596 8.17158 27.169 8.13092 26.8844C8.09025 26.4777 8.11058 25.949 8.19192 25.2984C8.27325 24.6477 8.59858 24.0784 9.16792 23.5904C9.77792 23.0617 10.6116 22.716 11.6689 22.5534C12.7669 22.3907 13.8853 22.3094 15.0239 22.3094C16.1219 22.3094 17.1793 22.35 18.1959 22.4314C19.2126 22.5127 20.0463 22.5534 20.6969 22.5534C20.6969 22.5534 21.1646 22.5534 22.0999 22.5534C23.0353 22.5534 24.2146 22.5534 25.6379 22.5534C27.1019 22.5127 28.6473 22.4924 30.2739 22.4924C31.9006 22.4924 33.3849 22.4924 34.7269 22.4924L33.4459 24.0784H29.1759C29.7859 25.217 30.1723 26.803 30.3349 28.8364C30.5383 30.8697 30.6399 32.8217 30.6399 34.6924C30.6399 35.465 30.6399 36.197 30.6399 36.8884C30.6399 37.5797 30.6196 38.1897 30.5789 38.7184C30.4976 40.6297 30.2333 42.9274 29.7859 45.6114C29.3386 48.2954 28.7693 50.837 28.0779 53.2364C29.7453 50.8777 31.7786 48.0717 34.1779 44.8184C36.6179 41.565 39.4036 38.1897 42.5349 34.6924C45.7069 31.1544 49.2043 27.7994 53.0269 24.6274C53.7996 23.9767 54.8163 23.2447 56.0769 22.4314C57.3376 21.618 58.6796 20.9267 60.1029 20.3574C61.5263 19.7474 62.8683 19.4424 64.1289 19.4424C65.3083 19.4424 66.1216 19.6457 66.5689 20.0524C67.0569 20.459 67.3009 20.9877 67.3009 21.6384C67.3009 22.411 67.0569 23.265 66.5689 24.2004C66.1216 25.1357 65.7759 25.9084 65.5319 26.5184C65.4913 26.6404 65.3083 26.7217 64.9829 26.7624C64.6576 26.803 64.5153 26.742 64.5559 26.5794C64.6373 26.254 64.7186 25.8677 64.7999 25.4204C64.9219 24.9324 64.9829 24.4444 64.9829 23.9564C64.9829 23.3057 64.8609 22.716 64.6169 22.1874C64.3729 21.6587 63.9053 21.3537 63.2139 21.2724C63.0919 21.2317 62.9699 21.2114 62.8479 21.2114C62.7259 21.2114 62.6039 21.2114 62.4819 21.2114C61.3026 21.2114 60.0216 21.618 58.6389 22.4314C57.2969 23.204 55.7313 24.302 53.9419 25.7254C50.5259 28.45 47.2726 31.4594 44.1819 34.7534C41.1319 38.0067 38.2039 41.4227 35.3979 45.0014C33.9339 46.8314 32.5106 48.6817 31.1279 50.5524C29.7453 52.423 28.4643 54.375 27.2849 56.4084C27.2036 56.571 27.1223 56.754 27.0409 56.9574C27.0003 57.2014 26.9393 57.3844 26.8579 57.5064C26.7766 57.5877 26.5326 57.7097 26.1259 57.8724C25.7193 58.0757 25.3126 58.2384 24.9059 58.3604C24.5399 58.523 24.2959 58.6044 24.1739 58.6044ZM40.9542 56.7744C40.6695 56.7744 40.4458 56.693 40.2832 56.5304C40.1205 56.4084 40.1205 56.3067 40.2832 56.2254C41.1778 56.0627 41.9505 55.7374 42.6012 55.2494C43.2518 54.7207 43.7805 54.07 44.1872 53.2974C45.0412 51.874 45.8748 50.4507 46.6882 49.0274C47.5422 47.5634 48.3555 46.0994 49.1282 44.6354C50.0635 42.846 51.0192 41.0567 51.9952 39.2674C52.9712 37.4374 53.9472 35.6277 54.9232 33.8384C55.8585 32.171 56.6922 30.5647 57.4242 29.0194C58.1562 27.474 58.7052 26.3557 59.0712 25.6644C59.3558 25.1357 59.8438 24.668 60.5352 24.2614C61.2672 23.814 61.9788 23.4684 62.6702 23.2244C62.4262 23.2244 62.1822 23.2244 61.9382 23.2244C61.6942 23.1837 61.4298 23.1634 61.1452 23.1634C59.8845 23.1634 58.5018 23.2447 56.9972 23.4074C55.5332 23.5294 54.0895 23.7327 52.6662 24.0174C51.2835 24.302 50.0635 24.6884 49.0062 25.1764C47.9488 25.6644 47.2372 26.254 46.8712 26.9454C46.7085 27.3114 46.5662 27.6774 46.4442 28.0434C46.3222 28.4094 46.2612 28.7754 46.2612 29.1414C46.2612 30.0767 46.5865 30.7477 47.2372 31.1544C47.2778 31.1544 47.2982 31.195 47.2982 31.2764C47.2982 31.3577 47.2168 31.439 47.0542 31.5204C46.9322 31.6017 46.8305 31.622 46.7492 31.5814C46.3425 31.378 45.8748 30.89 45.3462 30.1174C44.8582 29.304 44.5328 28.633 44.3702 28.1044C44.2482 27.6164 44.1872 27.169 44.1872 26.7624C44.1872 25.705 44.5328 24.8917 45.2242 24.3224C45.9155 23.7124 46.7898 23.2854 47.8472 23.0414C48.9045 22.7567 49.9822 22.594 51.0802 22.5534C52.2188 22.472 53.2152 22.4314 54.0692 22.4314C55.3705 22.4314 56.9158 22.4314 58.7052 22.4314C60.4945 22.3907 62.1415 22.3704 63.6462 22.3704C64.0122 22.3704 64.4188 22.3704 64.8662 22.3704C65.3135 22.3297 65.7812 22.3094 66.2692 22.3094C67.3672 22.3094 68.5058 22.3704 69.6852 22.4924C70.8645 22.6144 71.9422 22.8787 72.9182 23.2854C73.8942 23.692 74.6465 24.3224 75.1752 25.1764C75.9885 26.437 76.3952 27.779 76.3952 29.2024C76.3952 30.7884 75.9275 32.293 74.9922 33.7164C74.0975 35.099 72.9588 36.319 71.5762 37.3764C70.1935 38.4337 68.7905 39.247 67.3672 39.8164C66.0252 40.345 64.5205 40.711 62.8532 40.9144C61.2265 41.1177 59.7625 41.2194 58.4612 41.2194C58.0545 41.2194 57.6478 41.2194 57.2412 41.2194C56.8752 41.1787 56.5498 41.138 56.2652 41.0974C56.1838 41.0974 56.1432 41.0567 56.1432 40.9754C56.1432 40.8127 56.3058 40.589 56.6312 40.3044C56.9565 39.979 57.2208 39.8367 57.4242 39.8774C57.7495 39.918 58.0748 39.9384 58.4002 39.9384C58.7255 39.9384 59.0712 39.9384 59.4372 39.9384C60.9825 39.9384 62.6295 39.735 64.3782 39.3284C66.1268 38.9217 67.7332 38.149 69.1972 37.0104C70.7018 35.831 71.8405 34.123 72.6132 31.8864C72.8165 31.3984 72.9385 30.9104 72.9792 30.4224C73.0605 29.8937 73.1012 29.3854 73.1012 28.8974C73.1012 27.5147 72.7555 26.2947 72.0642 25.2374C71.3728 24.18 70.3765 23.57 69.0752 23.4074C68.9125 23.3667 68.7295 23.3464 68.5262 23.3464C68.3228 23.3464 68.1195 23.3464 67.9162 23.3464C67.1435 23.3464 66.2895 23.448 65.3542 23.6514C64.4595 23.8547 63.7885 24.241 63.3412 24.8104C62.3245 26.1524 61.3485 27.6774 60.4132 29.3854C59.4778 31.0527 58.5832 32.7607 57.7292 34.5094C56.8752 36.2174 56.0618 37.8237 55.2892 39.3284C55.0858 39.735 54.6995 40.467 54.1302 41.5244C53.5608 42.541 52.9305 43.7204 52.2392 45.0624C51.5478 46.3637 50.8972 47.665 50.2872 48.9664C49.6772 50.2677 49.1892 51.4267 48.8232 52.4434C48.4978 53.46 48.4165 54.1514 48.5792 54.5174C48.6198 54.558 48.6402 54.619 48.6402 54.7004C48.6402 54.8224 48.5792 54.8834 48.4572 54.8834C48.1318 54.8834 47.8065 54.802 47.4812 54.6394C47.1558 54.4767 46.7695 54.3954 46.3222 54.3954C45.9155 54.3954 45.5088 54.497 45.1022 54.7004C44.6955 54.863 44.1668 55.168 43.5162 55.6154C42.8655 56.0627 42.1335 56.4287 41.3202 56.7134C41.2388 56.754 41.1168 56.7744 40.9542 56.7744Z" fill="white"/>
</svg>
