<svg width="18" height="18" viewBox="0 0 18 18" fill="none" xmlns="http://www.w3.org/2000/svg">
<path d="M5.20496 2.74977C5.20476 3.1476 5.04653 3.52905 4.76509 3.81021C4.48364 4.09138 4.10203 4.24922 3.70421 4.24902C3.30638 4.24882 2.92493 4.0906 2.64377 3.80915C2.3626 3.52771 2.20476 3.1461 2.20496 2.74827C2.20516 2.35045 2.36338 1.969 2.64483 1.68783C2.92627 1.40667 3.30788 1.24882 3.70571 1.24902C4.10353 1.24922 4.48498 1.40745 4.76615 1.68889C5.04731 1.97034 5.20516 2.35195 5.20496 2.74977ZM5.24996 5.35977H2.24996V14.7498H5.24996V5.35977ZM9.98996 5.35977H7.00496V14.7498H9.95996V9.82227C9.95996 7.07727 13.5375 6.82227 13.5375 9.82227V14.7498H16.5V8.80227C16.5 4.17477 11.205 4.34727 9.95996 6.61977L9.98996 5.35977Z" fill="#75757F"/>
</svg>
