<svg width="126" height="130" viewBox="0 0 126 130" fill="none" xmlns="http://www.w3.org/2000/svg">
<circle cx="63" cy="63" r="63" fill="#0067BB"/>
<path d="M37.592 91.704C37.08 91.704 36.664 91.608 36.344 91.416C36.024 91.288 35.896 90.968 35.96 90.456C35.96 90.264 36.056 89.976 36.248 89.592C36.44 89.208 36.568 88.92 36.632 88.728C36.952 87.832 37.24 86.936 37.496 86.04C37.752 85.08 38.008 84.184 38.264 83.352C39.16 79.832 39.992 76.344 40.76 72.888C41.528 69.368 42.136 65.848 42.584 62.328C42.84 60.28 43.16 57.528 43.544 54.072C43.928 50.552 44.12 47.16 44.12 43.896C44.12 42.616 44.088 41.432 44.024 40.344C43.96 39.192 43.8 38.168 43.544 37.272C41.432 37.272 39.32 37.272 37.208 37.272C35.096 37.208 33.016 37.176 30.968 37.176C30.008 37.176 28.664 37.24 26.936 37.368C25.272 37.496 23.544 37.784 21.752 38.232C20.024 38.68 18.584 39.416 17.432 40.44C16.28 41.464 15.768 42.84 15.896 44.568C15.96 45.08 16.152 45.784 16.472 46.68C16.792 47.512 17.016 48.024 17.144 48.216L16.088 48.984C15.704 48.28 15.224 47.48 14.648 46.584C14.072 45.624 13.56 44.696 13.112 43.8C12.664 42.904 12.408 42.232 12.344 41.784C12.28 41.144 12.312 40.312 12.44 39.288C12.568 38.264 13.08 37.368 13.976 36.6C14.936 35.768 16.248 35.224 17.912 34.968C19.64 34.712 21.4 34.584 23.192 34.584C24.92 34.584 26.584 34.648 28.184 34.776C29.784 34.904 31.096 34.968 32.12 34.968C32.12 34.968 32.856 34.968 34.328 34.968C35.8 34.968 37.656 34.968 39.896 34.968C42.2 34.904 44.632 34.872 47.192 34.872C49.752 34.872 52.088 34.872 54.2 34.872L52.184 37.368H45.464C46.424 39.16 47.032 41.656 47.288 44.856C47.608 48.056 47.768 51.128 47.768 54.072C47.768 55.288 47.768 56.44 47.768 57.528C47.768 58.616 47.736 59.576 47.672 60.408C47.544 63.416 47.128 67.032 46.424 71.256C45.72 75.48 44.824 79.48 43.736 83.256C46.36 79.544 49.56 75.128 53.336 70.008C57.176 64.888 61.56 59.576 66.488 54.072C71.48 48.504 76.984 43.224 83 38.232C84.216 37.208 85.816 36.056 87.8 34.776C89.784 33.496 91.896 32.408 94.136 31.512C96.376 30.552 98.488 30.072 100.472 30.072C102.328 30.072 103.608 30.392 104.312 31.032C105.08 31.672 105.464 32.504 105.464 33.528C105.464 34.744 105.08 36.088 104.312 37.56C103.608 39.032 103.064 40.248 102.68 41.208C102.616 41.4 102.328 41.528 101.816 41.592C101.304 41.656 101.08 41.56 101.144 41.304C101.272 40.792 101.4 40.184 101.528 39.48C101.72 38.712 101.816 37.944 101.816 37.176C101.816 36.152 101.624 35.224 101.24 34.392C100.856 33.56 100.12 33.08 99.032 32.952C98.84 32.888 98.648 32.856 98.456 32.856C98.264 32.856 98.072 32.856 97.88 32.856C96.024 32.856 94.008 33.496 91.832 34.776C89.72 35.992 87.256 37.72 84.44 39.96C79.064 44.248 73.944 48.984 69.08 54.168C64.28 59.288 59.672 64.664 55.256 70.296C52.952 73.176 50.712 76.088 48.536 79.032C46.36 81.976 44.344 85.048 42.488 88.248C42.36 88.504 42.232 88.792 42.104 89.112C42.04 89.496 41.944 89.784 41.816 89.976C41.688 90.104 41.304 90.296 40.664 90.552C40.024 90.872 39.384 91.128 38.744 91.32C38.168 91.576 37.784 91.704 37.592 91.704ZM64.0003 88.824C63.5523 88.824 63.2003 88.696 62.9443 88.44C62.6882 88.248 62.6882 88.088 62.9443 87.96C64.3523 87.704 65.5683 87.192 66.5923 86.424C67.6163 85.592 68.4483 84.568 69.0883 83.352C70.4323 81.112 71.7443 78.872 73.0243 76.632C74.3683 74.328 75.6483 72.024 76.8643 69.72C78.3363 66.904 79.8403 64.088 81.3763 61.272C82.9123 58.392 84.4483 55.544 85.9843 52.728C87.4563 50.104 88.7683 47.576 89.9203 45.144C91.0723 42.712 91.9363 40.952 92.5123 39.864C92.9603 39.032 93.7283 38.296 94.8163 37.656C95.9683 36.952 97.0883 36.408 98.1763 36.024C97.7923 36.024 97.4083 36.024 97.0243 36.024C96.6403 35.96 96.2243 35.928 95.7763 35.928C93.7923 35.928 91.6163 36.056 89.2483 36.312C86.9443 36.504 84.6723 36.824 82.4323 37.272C80.2563 37.72 78.3363 38.328 76.6723 39.096C75.0083 39.864 73.8883 40.792 73.3123 41.88C73.0563 42.456 72.8323 43.032 72.6403 43.608C72.4483 44.184 72.3523 44.76 72.3523 45.336C72.3523 46.808 72.8643 47.864 73.8883 48.504C73.9523 48.504 73.9843 48.568 73.9843 48.696C73.9843 48.824 73.8563 48.952 73.6003 49.08C73.4083 49.208 73.2483 49.24 73.1203 49.176C72.4803 48.856 71.7443 48.088 70.9123 46.872C70.1443 45.592 69.6323 44.536 69.3763 43.704C69.1843 42.936 69.0883 42.232 69.0883 41.592C69.0883 39.928 69.6323 38.648 70.7203 37.752C71.8083 36.792 73.1843 36.12 74.8483 35.736C76.5123 35.288 78.2083 35.032 79.9363 34.968C81.7283 34.84 83.2963 34.776 84.6403 34.776C86.6883 34.776 89.1203 34.776 91.9363 34.776C94.7523 34.712 97.3443 34.68 99.7123 34.68C100.288 34.68 100.928 34.68 101.632 34.68C102.336 34.616 103.072 34.584 103.84 34.584C105.568 34.584 107.36 34.68 109.216 34.872C111.072 35.064 112.768 35.48 114.304 36.12C115.84 36.76 117.024 37.752 117.856 39.096C119.136 41.08 119.776 43.192 119.776 45.432C119.776 47.928 119.04 50.296 117.568 52.536C116.16 54.712 114.368 56.632 112.192 58.296C110.016 59.96 107.808 61.24 105.568 62.136C103.456 62.968 101.088 63.544 98.4643 63.864C95.9043 64.184 93.6003 64.344 91.5523 64.344C90.9123 64.344 90.2723 64.344 89.6323 64.344C89.0563 64.28 88.5443 64.216 88.0963 64.152C87.9683 64.152 87.9043 64.088 87.9043 63.96C87.9043 63.704 88.1603 63.352 88.6723 62.904C89.1843 62.392 89.6003 62.168 89.9203 62.232C90.4323 62.296 90.9443 62.328 91.4563 62.328C91.9683 62.328 92.5123 62.328 93.0883 62.328C95.5203 62.328 98.1123 62.008 100.864 61.368C103.616 60.728 106.144 59.512 108.448 57.72C110.816 55.864 112.608 53.176 113.824 49.656C114.144 48.888 114.336 48.12 114.4 47.352C114.528 46.52 114.592 45.72 114.592 44.952C114.592 42.776 114.048 40.856 112.96 39.192C111.872 37.528 110.304 36.568 108.256 36.312C108 36.248 107.712 36.216 107.392 36.216C107.072 36.216 106.752 36.216 106.432 36.216C105.216 36.216 103.872 36.376 102.4 36.696C100.992 37.016 99.9363 37.624 99.2323 38.52C97.6323 40.632 96.0963 43.032 94.6243 45.72C93.1523 48.344 91.7443 51.032 90.4003 53.784C89.0563 56.472 87.7763 59 86.5603 61.368C86.2403 62.008 85.6323 63.16 84.7363 64.824C83.8403 66.424 82.8483 68.28 81.7603 70.392C80.6723 72.44 79.6483 74.488 78.6883 76.536C77.7283 78.584 76.9603 80.408 76.3843 82.008C75.8723 83.608 75.7443 84.696 76.0003 85.272C76.0643 85.336 76.0963 85.432 76.0963 85.56C76.0963 85.752 76.0003 85.848 75.8083 85.848C75.2963 85.848 74.7843 85.72 74.2723 85.464C73.7603 85.208 73.1523 85.08 72.4483 85.08C71.8083 85.08 71.1683 85.24 70.5283 85.56C69.8883 85.816 69.0563 86.296 68.0323 87C67.0083 87.704 65.8563 88.28 64.5763 88.728C64.4483 88.792 64.2563 88.824 64.0003 88.824Z" fill="white"/>
</svg>
